<mxfile host="65bd71144e">
    <diagram id="C5RBs43oDa-KdzZeNtuy" name="Class_diagram">
        <mxGraphModel dx="1906" dy="1087" grid="1" gridSize="10" guides="1" tooltips="1" connect="1" arrows="1" fold="1" page="1" pageScale="1" pageWidth="827" pageHeight="1169" math="0" shadow="0">
            <root>
                <mxCell id="WIyWlLk6GJQsqaUBKTNV-0"/>
                <mxCell id="WIyWlLk6GJQsqaUBKTNV-1" parent="WIyWlLk6GJQsqaUBKTNV-0"/>
                <mxCell id="zkfFHV4jXpPFQw0GAbJ--0" value="TweetAnalyzer" style="swimlane;fontStyle=2;align=center;verticalAlign=top;childLayout=stackLayout;horizontal=1;startSize=26;horizontalStack=0;resizeParent=1;resizeLast=0;collapsible=1;marginBottom=0;rounded=0;shadow=0;strokeWidth=1;whiteSpace=wrap;" parent="WIyWlLk6GJQsqaUBKTNV-1" vertex="1">
                    <mxGeometry x="45" y="60" width="320" height="414" as="geometry">
                        <mxRectangle x="220" y="120" width="160" height="26" as="alternateBounds"/>
                    </mxGeometry>
                </mxCell>
                <mxCell id="zkfFHV4jXpPFQw0GAbJ--1" value="- MODELS" style="text;align=left;verticalAlign=top;spacingLeft=4;spacingRight=4;overflow=hidden;rotatable=0;points=[[0,0.5],[1,0.5]];portConstraint=eastwest;fontStyle=4;whiteSpace=wrap;" parent="zkfFHV4jXpPFQw0GAbJ--0" vertex="1">
                    <mxGeometry y="26" width="320" height="26" as="geometry"/>
                </mxCell>
                <mxCell id="4Y9D7hjWKIlBOxiLWUyo-4" value="- analysis : String" style="text;align=left;verticalAlign=top;spacingLeft=4;spacingRight=4;overflow=hidden;rotatable=0;points=[[0,0.5],[1,0.5]];portConstraint=eastwest;whiteSpace=wrap;" parent="zkfFHV4jXpPFQw0GAbJ--0" vertex="1">
                    <mxGeometry y="52" width="320" height="26" as="geometry"/>
                </mxCell>
                <mxCell id="4Y9D7hjWKIlBOxiLWUyo-3" value="- lang :String" style="text;align=left;verticalAlign=top;spacingLeft=4;spacingRight=4;overflow=hidden;rotatable=0;points=[[0,0.5],[1,0.5]];portConstraint=eastwest;whiteSpace=wrap;" parent="zkfFHV4jXpPFQw0GAbJ--0" vertex="1">
                    <mxGeometry y="78" width="320" height="26" as="geometry"/>
                </mxCell>
                <mxCell id="4Y9D7hjWKIlBOxiLWUyo-6" value="- model_name : String" style="text;align=left;verticalAlign=top;spacingLeft=4;spacingRight=4;overflow=hidden;rotatable=0;points=[[0,0.5],[1,0.5]];portConstraint=eastwest;whiteSpace=wrap;" parent="zkfFHV4jXpPFQw0GAbJ--0" vertex="1">
                    <mxGeometry y="104" width="320" height="26" as="geometry"/>
                </mxCell>
                <mxCell id="4Y9D7hjWKIlBOxiLWUyo-5" value="- batch_size: Integer = 32" style="text;align=left;verticalAlign=top;spacingLeft=4;spacingRight=4;overflow=hidden;rotatable=0;points=[[0,0.5],[1,0.5]];portConstraint=eastwest;whiteSpace=wrap;" parent="zkfFHV4jXpPFQw0GAbJ--0" vertex="1">
                    <mxGeometry y="130" width="320" height="26" as="geometry"/>
                </mxCell>
                <mxCell id="4Y9D7hjWKIlBOxiLWUyo-2" value="- kwargs: Dict" style="text;align=left;verticalAlign=top;spacingLeft=4;spacingRight=4;overflow=hidden;rotatable=0;points=[[0,0.5],[1,0.5]];portConstraint=eastwest;whiteSpace=wrap;" parent="zkfFHV4jXpPFQw0GAbJ--0" vertex="1">
                    <mxGeometry y="156" width="320" height="26" as="geometry"/>
                </mxCell>
                <mxCell id="zkfFHV4jXpPFQw0GAbJ--4" value="" style="line;html=1;strokeWidth=1;align=left;verticalAlign=middle;spacingTop=-1;spacingLeft=3;spacingRight=3;rotatable=0;labelPosition=right;points=[];portConstraint=eastwest;whiteSpace=wrap;" parent="zkfFHV4jXpPFQw0GAbJ--0" vertex="1">
                    <mxGeometry y="182" width="320" height="8" as="geometry"/>
                </mxCell>
                <mxCell id="EtlTK1Ibtd4HIhSHJPRG-16" value="+ get_supported_analysis(): String[]" style="text;align=left;verticalAlign=top;spacingLeft=4;spacingRight=4;overflow=hidden;rotatable=0;points=[[0,0.5],[1,0.5]];portConstraint=eastwest;rounded=0;shadow=0;html=0;fontStyle=4;whiteSpace=wrap;" parent="zkfFHV4jXpPFQw0GAbJ--0" vertex="1">
                    <mxGeometry y="190" width="320" height="22" as="geometry"/>
                </mxCell>
                <mxCell id="8lG5DPgOQoX_rHlZyL0x-0" value="+ get_supported_languages(analysis: String): String[]" style="text;align=left;verticalAlign=top;spacingLeft=4;spacingRight=4;overflow=hidden;rotatable=0;points=[[0,0.5],[1,0.5]];portConstraint=eastwest;rounded=0;shadow=0;html=0;fontStyle=4;whiteSpace=wrap;" parent="zkfFHV4jXpPFQw0GAbJ--0" vertex="1">
                    <mxGeometry y="212" width="320" height="22" as="geometry"/>
                </mxCell>
                <mxCell id="teAyTQDN_FOwFWnmAFYW-4" value="- get_model_info(analysis: String, lang: String): String" style="text;strokeColor=none;fillColor=none;align=left;verticalAlign=top;spacingLeft=4;spacingRight=4;overflow=hidden;rotatable=0;points=[[0,0.5],[1,0.5]];portConstraint=eastwest;fontStyle=6;whiteSpace=wrap;" parent="zkfFHV4jXpPFQw0GAbJ--0" vertex="1">
                    <mxGeometry y="234" width="320" height="26" as="geometry"/>
                </mxCell>
                <mxCell id="teAyTQDN_FOwFWnmAFYW-2" value="+ TweetAnalyzer(analysis: String, lang: String&#10;, model_name: String&#10; = None, batch_size: Integer = 32, kwargs: Dict)" style="text;strokeColor=none;fillColor=none;align=left;verticalAlign=top;spacingLeft=4;spacingRight=4;overflow=hidden;rotatable=0;points=[[0,0.5],[1,0.5]];portConstraint=eastwest;whiteSpace=wrap;" parent="zkfFHV4jXpPFQw0GAbJ--0" vertex="1">
                    <mxGeometry y="260" width="320" height="50" as="geometry"/>
                </mxCell>
                <mxCell id="4Y9D7hjWKIlBOxiLWUyo-0" value="+ predict(tweet: String[])" style="text;strokeColor=none;fillColor=none;align=left;verticalAlign=top;spacingLeft=4;spacingRight=4;overflow=hidden;rotatable=0;points=[[0,0.5],[1,0.5]];portConstraint=eastwest;whiteSpace=wrap;" parent="zkfFHV4jXpPFQw0GAbJ--0" vertex="1">
                    <mxGeometry y="310" width="320" height="26" as="geometry"/>
                </mxCell>
                <mxCell id="8lG5DPgOQoX_rHlZyL0x-10" value="+ predict(tweet: String[])" style="text;strokeColor=none;fillColor=none;align=left;verticalAlign=top;spacingLeft=4;spacingRight=4;overflow=hidden;rotatable=0;points=[[0,0.5],[1,0.5]];portConstraint=eastwest;whiteSpace=wrap;" parent="zkfFHV4jXpPFQw0GAbJ--0" vertex="1">
                    <mxGeometry y="336" width="320" height="26" as="geometry"/>
                </mxCell>
                <mxCell id="8lG5DPgOQoX_rHlZyL0x-1" value="- predict_single(tweet: String)" style="text;strokeColor=none;fillColor=none;align=left;verticalAlign=top;spacingLeft=4;spacingRight=4;overflow=hidden;rotatable=0;points=[[0,0.5],[1,0.5]];portConstraint=eastwest;whiteSpace=wrap;" parent="zkfFHV4jXpPFQw0GAbJ--0" vertex="1">
                    <mxGeometry y="362" width="320" height="26" as="geometry"/>
                </mxCell>
                <mxCell id="8lG5DPgOQoX_rHlZyL0x-2" value="- tokenize(batch: String[])" style="text;strokeColor=none;fillColor=none;align=left;verticalAlign=top;spacingLeft=4;spacingRight=4;overflow=hidden;rotatable=0;points=[[0,0.5],[1,0.5]];portConstraint=eastwest;whiteSpace=wrap;" parent="zkfFHV4jXpPFQw0GAbJ--0" vertex="1">
                    <mxGeometry y="388" width="320" height="26" as="geometry"/>
                </mxCell>
                <mxCell id="zkfFHV4jXpPFQw0GAbJ--17" value="TweetPreprocessor" style="swimlane;fontStyle=0;align=center;verticalAlign=top;childLayout=stackLayout;horizontal=1;startSize=26;horizontalStack=0;resizeParent=1;resizeLast=0;collapsible=1;marginBottom=0;rounded=0;shadow=0;strokeWidth=1;whiteSpace=wrap;" parent="WIyWlLk6GJQsqaUBKTNV-1" vertex="1">
                    <mxGeometry x="45" y="634.01" width="325" height="468" as="geometry">
                        <mxRectangle x="550" y="140" width="160" height="26" as="alternateBounds"/>
                    </mxGeometry>
                </mxCell>
                <mxCell id="8lG5DPgOQoX_rHlZyL0x-35" value="- lang: String" style="text;align=left;verticalAlign=top;spacingLeft=4;spacingRight=4;overflow=hidden;rotatable=0;points=[[0,0.5],[1,0.5]];portConstraint=eastwest;rounded=0;shadow=0;html=0;fontStyle=0;whiteSpace=wrap;" parent="zkfFHV4jXpPFQw0GAbJ--17" vertex="1">
                    <mxGeometry y="26" width="325" height="26" as="geometry"/>
                </mxCell>
                <mxCell id="8lG5DPgOQoX_rHlZyL0x-38" value="- user_token: String" style="text;align=left;verticalAlign=top;spacingLeft=4;spacingRight=4;overflow=hidden;rotatable=0;points=[[0,0.5],[1,0.5]];portConstraint=eastwest;rounded=0;shadow=0;html=0;fontStyle=0;whiteSpace=wrap;" parent="zkfFHV4jXpPFQw0GAbJ--17" vertex="1">
                    <mxGeometry y="52" width="325" height="26" as="geometry"/>
                </mxCell>
                <mxCell id="8lG5DPgOQoX_rHlZyL0x-37" value="- url_token: String" style="text;align=left;verticalAlign=top;spacingLeft=4;spacingRight=4;overflow=hidden;rotatable=0;points=[[0,0.5],[1,0.5]];portConstraint=eastwest;rounded=0;shadow=0;html=0;fontStyle=0;whiteSpace=wrap;" parent="zkfFHV4jXpPFQw0GAbJ--17" vertex="1">
                    <mxGeometry y="78" width="325" height="26" as="geometry"/>
                </mxCell>
                <mxCell id="8lG5DPgOQoX_rHlZyL0x-36" value="- hashtag_token: String" style="text;align=left;verticalAlign=top;spacingLeft=4;spacingRight=4;overflow=hidden;rotatable=0;points=[[0,0.5],[1,0.5]];portConstraint=eastwest;rounded=0;shadow=0;html=0;fontStyle=0;whiteSpace=wrap;" parent="zkfFHV4jXpPFQw0GAbJ--17" vertex="1">
                    <mxGeometry y="104" width="325" height="26" as="geometry"/>
                </mxCell>
                <mxCell id="8lG5DPgOQoX_rHlZyL0x-19" value="- emoji_token: String" style="text;align=left;verticalAlign=top;spacingLeft=4;spacingRight=4;overflow=hidden;rotatable=0;points=[[0,0.5],[1,0.5]];portConstraint=eastwest;rounded=0;shadow=0;html=0;fontStyle=0;whiteSpace=wrap;" parent="zkfFHV4jXpPFQw0GAbJ--17" vertex="1">
                    <mxGeometry y="130" width="325" height="26" as="geometry"/>
                </mxCell>
                <mxCell id="0" value="- shorten: Integer" style="text;align=left;verticalAlign=top;spacingLeft=4;spacingRight=4;overflow=hidden;rotatable=0;points=[[0,0.5],[1,0.5]];portConstraint=eastwest;rounded=0;shadow=0;html=0;fontStyle=0;whiteSpace=wrap;" parent="zkfFHV4jXpPFQw0GAbJ--17" vertex="1">
                    <mxGeometry y="156" width="325" height="26" as="geometry"/>
                </mxCell>
                <mxCell id="teAyTQDN_FOwFWnmAFYW-17" value="" style="line;html=1;strokeWidth=1;align=left;verticalAlign=middle;spacingTop=-1;spacingLeft=3;spacingRight=3;rotatable=0;labelPosition=right;points=[];portConstraint=eastwest;whiteSpace=wrap;" parent="zkfFHV4jXpPFQw0GAbJ--17" vertex="1">
                    <mxGeometry y="182" width="325" height="8" as="geometry"/>
                </mxCell>
                <mxCell id="7" value="+ get_supported_languages(analysis: String): String[]" style="text;align=left;verticalAlign=top;spacingLeft=4;spacingRight=4;overflow=hidden;rotatable=0;points=[[0,0.5],[1,0.5]];portConstraint=eastwest;rounded=0;shadow=0;html=0;fontStyle=4;whiteSpace=wrap;" parent="zkfFHV4jXpPFQw0GAbJ--17" vertex="1">
                    <mxGeometry y="190" width="325" height="26" as="geometry"/>
                </mxCell>
                <mxCell id="22" value="+ get_special_tokens(): String[]" style="text;align=left;verticalAlign=top;spacingLeft=4;spacingRight=4;overflow=hidden;rotatable=0;points=[[0,0.5],[1,0.5]];portConstraint=eastwest;rounded=0;shadow=0;html=0;fontStyle=4;whiteSpace=wrap;" parent="zkfFHV4jXpPFQw0GAbJ--17" vertex="1">
                    <mxGeometry y="216" width="325" height="26" as="geometry"/>
                </mxCell>
                <mxCell id="teAyTQDN_FOwFWnmAFYW-18" value="+ preprocess(text: String, normalize_hashtag: Boolean = true, normalize_emoji: Boolean = true, normalize_laugh: Boolean = True, shorten: Integer = 3)" style="text;strokeColor=none;fillColor=none;align=left;verticalAlign=top;spacingLeft=4;spacingRight=4;overflow=hidden;rotatable=0;points=[[0,0.5],[1,0.5]];portConstraint=eastwest;whiteSpace=wrap;" parent="zkfFHV4jXpPFQw0GAbJ--17" vertex="1">
                    <mxGeometry y="242" width="325" height="70" as="geometry"/>
                </mxCell>
                <mxCell id="1" value="- preprocess_users(text: String): String" style="text;align=left;verticalAlign=top;spacingLeft=4;spacingRight=4;overflow=hidden;rotatable=0;points=[[0,0.5],[1,0.5]];portConstraint=eastwest;rounded=0;shadow=0;html=0;fontStyle=0;whiteSpace=wrap;" parent="zkfFHV4jXpPFQw0GAbJ--17" vertex="1">
                    <mxGeometry y="312" width="325" height="26" as="geometry"/>
                </mxCell>
                <mxCell id="2" value="- preprocess_urls(text: String): String" style="text;align=left;verticalAlign=top;spacingLeft=4;spacingRight=4;overflow=hidden;rotatable=0;points=[[0,0.5],[1,0.5]];portConstraint=eastwest;rounded=0;shadow=0;html=0;fontStyle=0;whiteSpace=wrap;" parent="zkfFHV4jXpPFQw0GAbJ--17" vertex="1">
                    <mxGeometry y="338" width="325" height="26" as="geometry"/>
                </mxCell>
                <mxCell id="3" value="- preprocess_hashtags(text: String): String" style="text;align=left;verticalAlign=top;spacingLeft=4;spacingRight=4;overflow=hidden;rotatable=0;points=[[0,0.5],[1,0.5]];portConstraint=eastwest;rounded=0;shadow=0;html=0;fontStyle=0;whiteSpace=wrap;" parent="zkfFHV4jXpPFQw0GAbJ--17" vertex="1">
                    <mxGeometry y="364" width="325" height="26" as="geometry"/>
                </mxCell>
                <mxCell id="4" value="- preprocess_emoji(text: String): String" style="text;align=left;verticalAlign=top;spacingLeft=4;spacingRight=4;overflow=hidden;rotatable=0;points=[[0,0.5],[1,0.5]];portConstraint=eastwest;rounded=0;shadow=0;html=0;fontStyle=0;whiteSpace=wrap;" parent="zkfFHV4jXpPFQw0GAbJ--17" vertex="1">
                    <mxGeometry y="390" width="325" height="26" as="geometry"/>
                </mxCell>
                <mxCell id="5" value="- preprocess_laugh(text: String): String" style="text;align=left;verticalAlign=top;spacingLeft=4;spacingRight=4;overflow=hidden;rotatable=0;points=[[0,0.5],[1,0.5]];portConstraint=eastwest;rounded=0;shadow=0;html=0;fontStyle=0;whiteSpace=wrap;" parent="zkfFHV4jXpPFQw0GAbJ--17" vertex="1">
                    <mxGeometry y="416" width="325" height="26" as="geometry"/>
                </mxCell>
                <mxCell id="6" value="- preprocess_shorten(text: String, shorten: Integer): String" style="text;align=left;verticalAlign=top;spacingLeft=4;spacingRight=4;overflow=hidden;rotatable=0;points=[[0,0.5],[1,0.5]];portConstraint=eastwest;rounded=0;shadow=0;html=0;fontStyle=0;whiteSpace=wrap;" parent="zkfFHV4jXpPFQw0GAbJ--17" vertex="1">
                    <mxGeometry y="442" width="325" height="26" as="geometry"/>
                </mxCell>
                <mxCell id="teAyTQDN_FOwFWnmAFYW-11" value="&lt;&lt;DataType&gt;&gt;&#10;ModelResults&#10;" style="swimlane;fontStyle=0;align=center;verticalAlign=top;childLayout=stackLayout;horizontal=1;startSize=40;horizontalStack=0;resizeParent=1;resizeLast=0;collapsible=1;marginBottom=0;rounded=0;shadow=0;strokeWidth=1;whiteSpace=wrap;" parent="WIyWlLk6GJQsqaUBKTNV-1" vertex="1">
                    <mxGeometry x="544" y="410" width="160" height="100" as="geometry">
                        <mxRectangle x="340" y="380" width="170" height="26" as="alternateBounds"/>
                    </mxGeometry>
                </mxCell>
                <mxCell id="teAyTQDN_FOwFWnmAFYW-12" value="labels : String[]" style="text;align=left;verticalAlign=top;spacingLeft=4;spacingRight=4;overflow=hidden;rotatable=0;points=[[0,0.5],[1,0.5]];portConstraint=eastwest;fontStyle=0;whiteSpace=wrap;" parent="teAyTQDN_FOwFWnmAFYW-11" vertex="1">
                    <mxGeometry y="40" width="160" height="26" as="geometry"/>
                </mxCell>
                <mxCell id="teAyTQDN_FOwFWnmAFYW-13" value="" style="line;html=1;strokeWidth=1;align=left;verticalAlign=middle;spacingTop=-1;spacingLeft=3;spacingRight=3;rotatable=0;labelPosition=right;points=[];portConstraint=eastwest;whiteSpace=wrap;" parent="teAyTQDN_FOwFWnmAFYW-11" vertex="1">
                    <mxGeometry y="66" width="160" height="8" as="geometry"/>
                </mxCell>
                <mxCell id="teAyTQDN_FOwFWnmAFYW-14" value="probs : Real[] " style="text;strokeColor=none;fillColor=none;align=left;verticalAlign=top;spacingLeft=4;spacingRight=4;overflow=hidden;rotatable=0;points=[[0,0.5],[1,0.5]];portConstraint=eastwest;whiteSpace=wrap;" parent="teAyTQDN_FOwFWnmAFYW-11" vertex="1">
                    <mxGeometry y="74" width="160" height="26" as="geometry"/>
                </mxCell>
                <mxCell id="EtlTK1Ibtd4HIhSHJPRG-0" value="InputFormatter" style="swimlane;fontStyle=0;align=center;verticalAlign=top;childLayout=stackLayout;horizontal=1;startSize=26;horizontalStack=0;resizeParent=1;resizeLast=0;collapsible=1;marginBottom=0;rounded=0;shadow=0;strokeWidth=1;whiteSpace=wrap;" parent="WIyWlLk6GJQsqaUBKTNV-1" vertex="1">
                    <mxGeometry x="640" y="679.01" width="160" height="90" as="geometry">
                        <mxRectangle x="550" y="140" width="160" height="26" as="alternateBounds"/>
                    </mxGeometry>
                </mxCell>
                <mxCell id="EtlTK1Ibtd4HIhSHJPRG-4" value="" style="line;html=1;strokeWidth=1;align=left;verticalAlign=middle;spacingTop=-1;spacingLeft=3;spacingRight=3;rotatable=0;labelPosition=right;points=[];portConstraint=eastwest;whiteSpace=wrap;" parent="EtlTK1Ibtd4HIhSHJPRG-0" vertex="1">
                    <mxGeometry y="26" width="160" height="8" as="geometry"/>
                </mxCell>
                <mxCell id="EtlTK1Ibtd4HIhSHJPRG-15" value="+ tokenize()" style="text;align=left;verticalAlign=top;spacingLeft=4;spacingRight=4;overflow=hidden;rotatable=0;points=[[0,0.5],[1,0.5]];portConstraint=eastwest;rounded=0;shadow=0;html=0;whiteSpace=wrap;" parent="EtlTK1Ibtd4HIhSHJPRG-0" vertex="1">
                    <mxGeometry y="34" width="160" height="22" as="geometry"/>
                </mxCell>
                <mxCell id="EtlTK1Ibtd4HIhSHJPRG-14" value="+ format_dataset()" style="text;align=left;verticalAlign=top;spacingLeft=4;spacingRight=4;overflow=hidden;rotatable=0;points=[[0,0.5],[1,0.5]];portConstraint=eastwest;rounded=0;shadow=0;html=0;whiteSpace=wrap;" parent="EtlTK1Ibtd4HIhSHJPRG-0" vertex="1">
                    <mxGeometry y="56" width="160" height="22" as="geometry"/>
                </mxCell>
                <mxCell id="EtlTK1Ibtd4HIhSHJPRG-6" value="TweetTrainer" style="swimlane;fontStyle=0;align=center;verticalAlign=top;childLayout=stackLayout;horizontal=1;startSize=26;horizontalStack=0;resizeParent=1;resizeLast=0;collapsible=1;marginBottom=0;rounded=0;shadow=0;strokeWidth=1;whiteSpace=wrap;" parent="WIyWlLk6GJQsqaUBKTNV-1" vertex="1">
                    <mxGeometry x="391" y="657.01" width="160" height="144" as="geometry">
                        <mxRectangle x="550" y="140" width="160" height="26" as="alternateBounds"/>
                    </mxGeometry>
                </mxCell>
                <mxCell id="EtlTK1Ibtd4HIhSHJPRG-7" value="" style="line;html=1;strokeWidth=1;align=left;verticalAlign=middle;spacingTop=-1;spacingLeft=3;spacingRight=3;rotatable=0;labelPosition=right;points=[];portConstraint=eastwest;whiteSpace=wrap;" parent="EtlTK1Ibtd4HIhSHJPRG-6" vertex="1">
                    <mxGeometry y="26" width="160" height="8" as="geometry"/>
                </mxCell>
                <mxCell id="EtlTK1Ibtd4HIhSHJPRG-8" value="+ save_model()" style="text;align=left;verticalAlign=top;spacingLeft=4;spacingRight=4;overflow=hidden;rotatable=0;points=[[0,0.5],[1,0.5]];portConstraint=eastwest;rounded=0;shadow=0;html=0;whiteSpace=wrap;" parent="EtlTK1Ibtd4HIhSHJPRG-6" vertex="1">
                    <mxGeometry y="34" width="160" height="22" as="geometry"/>
                </mxCell>
                <mxCell id="EtlTK1Ibtd4HIhSHJPRG-9" value="+ load_model()" style="text;align=left;verticalAlign=top;spacingLeft=4;spacingRight=4;overflow=hidden;rotatable=0;points=[[0,0.5],[1,0.5]];portConstraint=eastwest;rounded=0;shadow=0;html=0;whiteSpace=wrap;" parent="EtlTK1Ibtd4HIhSHJPRG-6" vertex="1">
                    <mxGeometry y="56" width="160" height="22" as="geometry"/>
                </mxCell>
                <mxCell id="EtlTK1Ibtd4HIhSHJPRG-11" value="+ train()" style="text;align=left;verticalAlign=top;spacingLeft=4;spacingRight=4;overflow=hidden;rotatable=0;points=[[0,0.5],[1,0.5]];portConstraint=eastwest;rounded=0;shadow=0;html=0;whiteSpace=wrap;" parent="EtlTK1Ibtd4HIhSHJPRG-6" vertex="1">
                    <mxGeometry y="78" width="160" height="22" as="geometry"/>
                </mxCell>
                <mxCell id="EtlTK1Ibtd4HIhSHJPRG-13" value="+ evaluate()" style="text;align=left;verticalAlign=top;spacingLeft=4;spacingRight=4;overflow=hidden;rotatable=0;points=[[0,0.5],[1,0.5]];portConstraint=eastwest;rounded=0;shadow=0;html=0;whiteSpace=wrap;" parent="EtlTK1Ibtd4HIhSHJPRG-6" vertex="1">
                    <mxGeometry y="100" width="160" height="22" as="geometry"/>
                </mxCell>
                <mxCell id="EtlTK1Ibtd4HIhSHJPRG-12" value="+ compute_metrics()" style="text;align=left;verticalAlign=top;spacingLeft=4;spacingRight=4;overflow=hidden;rotatable=0;points=[[0,0.5],[1,0.5]];portConstraint=eastwest;rounded=0;shadow=0;html=0;whiteSpace=wrap;" parent="EtlTK1Ibtd4HIhSHJPRG-6" vertex="1">
                    <mxGeometry y="122" width="160" height="22" as="geometry"/>
                </mxCell>
                <mxCell id="EtlTK1Ibtd4HIhSHJPRG-30" value="" style="endArrow=none;html=1;rounded=0;exitX=1;exitY=0.5;exitDx=0;exitDy=0;entryX=0;entryY=0.5;entryDx=0;entryDy=0;" parent="WIyWlLk6GJQsqaUBKTNV-1" source="4Y9D7hjWKIlBOxiLWUyo-6" edge="1">
                    <mxGeometry relative="1" as="geometry">
                        <mxPoint x="365" y="281" as="sourcePoint"/>
                        <mxPoint x="534" y="177.00000000000023" as="targetPoint"/>
                    </mxGeometry>
                </mxCell>
                <mxCell id="EtlTK1Ibtd4HIhSHJPRG-31" value="1" style="resizable=0;html=1;align=left;verticalAlign=bottom;" parent="EtlTK1Ibtd4HIhSHJPRG-30" connectable="0" vertex="1">
                    <mxGeometry x="-1" relative="1" as="geometry">
                        <mxPoint x="6" as="offset"/>
                    </mxGeometry>
                </mxCell>
                <mxCell id="EtlTK1Ibtd4HIhSHJPRG-32" value="1" style="resizable=0;html=1;align=right;verticalAlign=bottom;" parent="EtlTK1Ibtd4HIhSHJPRG-30" connectable="0" vertex="1">
                    <mxGeometry x="1" relative="1" as="geometry">
                        <mxPoint x="-10" as="offset"/>
                    </mxGeometry>
                </mxCell>
                <mxCell id="EtlTK1Ibtd4HIhSHJPRG-34" value="" style="endArrow=none;html=1;rounded=0;exitX=1;exitY=0.5;exitDx=0;exitDy=0;entryX=0;entryY=0.5;entryDx=0;entryDy=0;" parent="WIyWlLk6GJQsqaUBKTNV-1" source="EtlTK1Ibtd4HIhSHJPRG-9" target="EtlTK1Ibtd4HIhSHJPRG-15" edge="1">
                    <mxGeometry relative="1" as="geometry">
                        <mxPoint x="671" y="357.01" as="sourcePoint"/>
                        <mxPoint x="831" y="357.01" as="targetPoint"/>
                    </mxGeometry>
                </mxCell>
                <mxCell id="EtlTK1Ibtd4HIhSHJPRG-35" value="1" style="resizable=0;html=1;align=left;verticalAlign=bottom;" parent="EtlTK1Ibtd4HIhSHJPRG-34" connectable="0" vertex="1">
                    <mxGeometry x="-1" relative="1" as="geometry"/>
                </mxCell>
                <mxCell id="EtlTK1Ibtd4HIhSHJPRG-36" value="1" style="resizable=0;html=1;align=right;verticalAlign=bottom;" parent="EtlTK1Ibtd4HIhSHJPRG-34" connectable="0" vertex="1">
                    <mxGeometry x="1" relative="1" as="geometry">
                        <mxPoint x="-10" as="offset"/>
                    </mxGeometry>
                </mxCell>
                <mxCell id="4Y9D7hjWKIlBOxiLWUyo-8" value="BertTokenizerFast&#10;" style="swimlane;fontStyle=0;align=center;verticalAlign=top;childLayout=stackLayout;horizontal=1;startSize=26;horizontalStack=0;resizeParent=1;resizeLast=0;collapsible=1;marginBottom=0;rounded=0;shadow=0;strokeWidth=1;whiteSpace=wrap;" parent="WIyWlLk6GJQsqaUBKTNV-1" vertex="1">
                    <mxGeometry x="544" y="280" width="160" height="30" as="geometry">
                        <mxRectangle x="550" y="140" width="160" height="26" as="alternateBounds"/>
                    </mxGeometry>
                </mxCell>
                <mxCell id="4Y9D7hjWKIlBOxiLWUyo-13" value="BertForSequenceClassification" style="swimlane;fontStyle=0;align=center;verticalAlign=top;childLayout=stackLayout;horizontal=1;startSize=26;horizontalStack=0;resizeParent=1;resizeLast=0;collapsible=1;marginBottom=0;rounded=0;shadow=0;strokeWidth=1;whiteSpace=wrap;" parent="WIyWlLk6GJQsqaUBKTNV-1" vertex="1">
                    <mxGeometry x="524" y="347" width="200" height="30" as="geometry">
                        <mxRectangle x="550" y="140" width="160" height="26" as="alternateBounds"/>
                    </mxGeometry>
                </mxCell>
                <mxCell id="4Y9D7hjWKIlBOxiLWUyo-14" value="" style="endArrow=none;html=1;rounded=0;entryX=0;entryY=0.5;entryDx=0;entryDy=0;" parent="WIyWlLk6GJQsqaUBKTNV-1" edge="1">
                    <mxGeometry relative="1" as="geometry">
                        <mxPoint x="368" y="297" as="sourcePoint"/>
                        <mxPoint x="544" y="297" as="targetPoint"/>
                        <Array as="points"/>
                    </mxGeometry>
                </mxCell>
                <mxCell id="4Y9D7hjWKIlBOxiLWUyo-15" value="1" style="resizable=0;html=1;align=left;verticalAlign=bottom;" parent="4Y9D7hjWKIlBOxiLWUyo-14" connectable="0" vertex="1">
                    <mxGeometry x="-1" relative="1" as="geometry">
                        <mxPoint x="6" as="offset"/>
                    </mxGeometry>
                </mxCell>
                <mxCell id="4Y9D7hjWKIlBOxiLWUyo-16" value="1" style="resizable=0;html=1;align=right;verticalAlign=bottom;" parent="4Y9D7hjWKIlBOxiLWUyo-14" connectable="0" vertex="1">
                    <mxGeometry x="1" relative="1" as="geometry">
                        <mxPoint x="-10" as="offset"/>
                    </mxGeometry>
                </mxCell>
                <mxCell id="4Y9D7hjWKIlBOxiLWUyo-18" value="" style="endArrow=none;html=1;rounded=0;exitX=1;exitY=0.5;exitDx=0;exitDy=0;entryX=0;entryY=0.5;entryDx=0;entryDy=0;" parent="WIyWlLk6GJQsqaUBKTNV-1" target="4Y9D7hjWKIlBOxiLWUyo-13" edge="1">
                    <mxGeometry relative="1" as="geometry">
                        <mxPoint x="365" y="361.5" as="sourcePoint"/>
                        <mxPoint x="495" y="362" as="targetPoint"/>
                        <Array as="points"/>
                    </mxGeometry>
                </mxCell>
                <mxCell id="4Y9D7hjWKIlBOxiLWUyo-19" value="1" style="resizable=0;html=1;align=left;verticalAlign=bottom;" parent="4Y9D7hjWKIlBOxiLWUyo-18" connectable="0" vertex="1">
                    <mxGeometry x="-1" relative="1" as="geometry">
                        <mxPoint x="6" as="offset"/>
                    </mxGeometry>
                </mxCell>
                <mxCell id="4Y9D7hjWKIlBOxiLWUyo-20" value="1" style="resizable=0;html=1;align=right;verticalAlign=bottom;" parent="4Y9D7hjWKIlBOxiLWUyo-18" connectable="0" vertex="1">
                    <mxGeometry x="1" relative="1" as="geometry">
                        <mxPoint x="-9" as="offset"/>
                    </mxGeometry>
                </mxCell>
                <mxCell id="8lG5DPgOQoX_rHlZyL0x-3" value="OutputFormatter" style="swimlane;fontStyle=0;align=center;verticalAlign=top;childLayout=stackLayout;horizontal=1;startSize=26;horizontalStack=0;resizeParent=1;resizeLast=0;collapsible=1;marginBottom=0;rounded=0;shadow=0;strokeWidth=1;whiteSpace=wrap;" parent="WIyWlLk6GJQsqaUBKTNV-1" vertex="1">
                    <mxGeometry x="544" y="124" width="160" height="138" as="geometry">
                        <mxRectangle x="550" y="140" width="160" height="26" as="alternateBounds"/>
                    </mxGeometry>
                </mxCell>
                <mxCell id="8lG5DPgOQoX_rHlZyL0x-4" value="- results: ModelResults" style="text;align=left;verticalAlign=top;spacingLeft=4;spacingRight=4;overflow=hidden;rotatable=0;points=[[0,0.5],[1,0.5]];portConstraint=eastwest;rounded=0;shadow=0;html=0;whiteSpace=wrap;" parent="8lG5DPgOQoX_rHlZyL0x-3" vertex="1">
                    <mxGeometry y="26" width="160" height="26" as="geometry"/>
                </mxCell>
                <mxCell id="8lG5DPgOQoX_rHlZyL0x-5" value="" style="line;html=1;strokeWidth=1;align=left;verticalAlign=middle;spacingTop=-1;spacingLeft=3;spacingRight=3;rotatable=0;labelPosition=right;points=[];portConstraint=eastwest;whiteSpace=wrap;" parent="8lG5DPgOQoX_rHlZyL0x-3" vertex="1">
                    <mxGeometry y="52" width="160" height="8" as="geometry"/>
                </mxCell>
                <mxCell id="24" value="+ pie(OutputFormatter[])" style="text;strokeColor=none;fillColor=none;align=left;verticalAlign=top;spacingLeft=4;spacingRight=4;overflow=hidden;rotatable=0;points=[[0,0.5],[1,0.5]];portConstraint=eastwest;whiteSpace=wrap;fontStyle=4" vertex="1" parent="8lG5DPgOQoX_rHlZyL0x-3">
                    <mxGeometry y="60" width="160" height="26" as="geometry"/>
                </mxCell>
                <mxCell id="8lG5DPgOQoX_rHlZyL0x-6" value="+ toString(): String" style="text;strokeColor=none;fillColor=none;align=left;verticalAlign=top;spacingLeft=4;spacingRight=4;overflow=hidden;rotatable=0;points=[[0,0.5],[1,0.5]];portConstraint=eastwest;whiteSpace=wrap;" parent="8lG5DPgOQoX_rHlZyL0x-3" vertex="1">
                    <mxGeometry y="86" width="160" height="26" as="geometry"/>
                </mxCell>
                <mxCell id="23" value="+ getTopClass(): String" style="text;strokeColor=none;fillColor=none;align=left;verticalAlign=top;spacingLeft=4;spacingRight=4;overflow=hidden;rotatable=0;points=[[0,0.5],[1,0.5]];portConstraint=eastwest;whiteSpace=wrap;" vertex="1" parent="8lG5DPgOQoX_rHlZyL0x-3">
                    <mxGeometry y="112" width="160" height="26" as="geometry"/>
                </mxCell>
                <mxCell id="8lG5DPgOQoX_rHlZyL0x-7" value="" style="endArrow=none;html=1;rounded=0;exitX=0.5;exitY=1.269;exitDx=0;exitDy=0;exitPerimeter=0;" parent="WIyWlLk6GJQsqaUBKTNV-1" edge="1">
                    <mxGeometry relative="1" as="geometry">
                        <mxPoint x="203" y="480.9939999999999" as="sourcePoint"/>
                        <mxPoint x="200" y="630" as="targetPoint"/>
                        <Array as="points"/>
                    </mxGeometry>
                </mxCell>
                <mxCell id="8lG5DPgOQoX_rHlZyL0x-8" value="1" style="resizable=0;html=1;align=left;verticalAlign=bottom;" parent="8lG5DPgOQoX_rHlZyL0x-7" connectable="0" vertex="1">
                    <mxGeometry x="-1" relative="1" as="geometry">
                        <mxPoint x="10" y="103" as="offset"/>
                    </mxGeometry>
                </mxCell>
                <mxCell id="8lG5DPgOQoX_rHlZyL0x-9" value="1" style="resizable=0;html=1;align=right;verticalAlign=bottom;" parent="8lG5DPgOQoX_rHlZyL0x-7" connectable="0" vertex="1">
                    <mxGeometry x="1" relative="1" as="geometry">
                        <mxPoint x="-9" y="87" as="offset"/>
                    </mxGeometry>
                </mxCell>
                <mxCell id="8" value="TweetTranslator" style="swimlane;fontStyle=0;align=center;verticalAlign=top;childLayout=stackLayout;horizontal=1;startSize=26;horizontalStack=0;resizeParent=1;resizeLast=0;collapsible=1;marginBottom=0;rounded=0;shadow=0;strokeWidth=1;whiteSpace=wrap;" parent="WIyWlLk6GJQsqaUBKTNV-1" vertex="1">
                    <mxGeometry x="391" y="857.01" width="219" height="120" as="geometry">
                        <mxRectangle x="550" y="140" width="160" height="26" as="alternateBounds"/>
                    </mxGeometry>
                </mxCell>
                <mxCell id="9" value="" style="line;html=1;strokeWidth=1;align=left;verticalAlign=middle;spacingTop=-1;spacingLeft=3;spacingRight=3;rotatable=0;labelPosition=right;points=[];portConstraint=eastwest;whiteSpace=wrap;" parent="8" vertex="1">
                    <mxGeometry y="26" width="219" height="8" as="geometry"/>
                </mxCell>
                <mxCell id="10" value="+ TweetTranslator(tweets: String)" style="text;align=left;verticalAlign=top;spacingLeft=4;spacingRight=4;overflow=hidden;rotatable=0;points=[[0,0.5],[1,0.5]];portConstraint=eastwest;rounded=0;shadow=0;html=0;whiteSpace=wrap;" parent="8" vertex="1">
                    <mxGeometry y="34" width="219" height="26" as="geometry"/>
                </mxCell>
                <mxCell id="11" value="+ translate(file_path: String, src: String, dest: String)" style="text;align=left;verticalAlign=top;spacingLeft=4;spacingRight=4;overflow=hidden;rotatable=0;points=[[0,0.5],[1,0.5]];portConstraint=eastwest;rounded=0;shadow=0;html=0;whiteSpace=wrap;" parent="8" vertex="1">
                    <mxGeometry y="60" width="219" height="30" as="geometry"/>
                </mxCell>
                <mxCell id="12" value="TweetAnalyzerTrainer" style="swimlane;fontStyle=0;align=center;verticalAlign=top;childLayout=stackLayout;horizontal=1;startSize=26;horizontalStack=0;resizeParent=1;resizeLast=0;collapsible=1;marginBottom=0;rounded=0;shadow=0;strokeWidth=1;whiteSpace=wrap;" parent="WIyWlLk6GJQsqaUBKTNV-1" vertex="1">
                    <mxGeometry x="625.5" y="837.01" width="189" height="210" as="geometry">
                        <mxRectangle x="550" y="140" width="160" height="26" as="alternateBounds"/>
                    </mxGeometry>
                </mxCell>
                <mxCell id="13" value="" style="line;html=1;strokeWidth=1;align=left;verticalAlign=middle;spacingTop=-1;spacingLeft=3;spacingRight=3;rotatable=0;labelPosition=right;points=[];portConstraint=eastwest;whiteSpace=wrap;" parent="12" vertex="1">
                    <mxGeometry y="26" width="189" height="8" as="geometry"/>
                </mxCell>
                <mxCell id="16" value="+ load_dataset()" style="text;align=left;verticalAlign=top;spacingLeft=4;spacingRight=4;overflow=hidden;rotatable=0;points=[[0,0.5],[1,0.5]];portConstraint=eastwest;fontStyle=0;whiteSpace=wrap;" parent="12" vertex="1">
                    <mxGeometry y="34" width="189" height="26" as="geometry"/>
                </mxCell>
                <mxCell id="17" value="+ load_model()" style="text;align=left;verticalAlign=top;spacingLeft=4;spacingRight=4;overflow=hidden;rotatable=0;points=[[0,0.5],[1,0.5]];portConstraint=eastwest;fontStyle=0;whiteSpace=wrap;" parent="12" vertex="1">
                    <mxGeometry y="60" width="189" height="26" as="geometry"/>
                </mxCell>
                <mxCell id="18" value="- tokenize()" style="text;align=left;verticalAlign=top;spacingLeft=4;spacingRight=4;overflow=hidden;rotatable=0;points=[[0,0.5],[1,0.5]];portConstraint=eastwest;fontStyle=0;whiteSpace=wrap;" parent="12" vertex="1">
                    <mxGeometry y="86" width="189" height="26" as="geometry"/>
                </mxCell>
                <mxCell id="19" value="- format_dataset()" style="text;align=left;verticalAlign=top;spacingLeft=4;spacingRight=4;overflow=hidden;rotatable=0;points=[[0,0.5],[1,0.5]];portConstraint=eastwest;fontStyle=0;whiteSpace=wrap;" parent="12" vertex="1">
                    <mxGeometry y="112" width="189" height="26" as="geometry"/>
                </mxCell>
                <mxCell id="20" value="- compute_metrics()" style="text;align=left;verticalAlign=top;spacingLeft=4;spacingRight=4;overflow=hidden;rotatable=0;points=[[0,0.5],[1,0.5]];portConstraint=eastwest;fontStyle=0;whiteSpace=wrap;" parent="12" vertex="1">
                    <mxGeometry y="138" width="189" height="26" as="geometry"/>
                </mxCell>
                <mxCell id="21" value="+ train()" style="text;align=left;verticalAlign=top;spacingLeft=4;spacingRight=4;overflow=hidden;rotatable=0;points=[[0,0.5],[1,0.5]];portConstraint=eastwest;fontStyle=0;whiteSpace=wrap;" parent="12" vertex="1">
                    <mxGeometry y="164" width="189" height="26" as="geometry"/>
                </mxCell>
            </root>
        </mxGraphModel>
    </diagram>
</mxfile>